<?xml version="1.0" encoding="utf-8"?>
<!-- Generator: Adobe Illustrator 16.0.3, SVG Export Plug-In . SVG Version: 6.00 Build 0)  -->
<!DOCTYPE svg PUBLIC "-//W3C//DTD SVG 1.1//EN" "http://www.w3.org/Graphics/SVG/1.1/DTD/svg11.dtd">
<svg version="1.1" id="Layer_1" xmlns="http://www.w3.org/2000/svg" xmlns:xlink="http://www.w3.org/1999/xlink" x="0px" y="0px"
	 width="422px" height="142px" viewBox="0 0 422 142" enable-background="new 0 0 422 142" xml:space="preserve">
<g>
	<path fill="#4299E1" d="M0,46.834c0,0.876,0.038,1.768,0.093,2.666h120.813c0.056-0.898,0.094-1.79,0.094-2.666
		c0-2.176-0.128-4.285-0.363-6.334H0.363C0.128,42.549,0,44.658,0,46.834z"/>
	<path fill="#4299E1" d="M120.006,36.5c-2.236-11.26-8.258-20.313-17.777-26.495C92.008,3.366,77.968,0,60.5,0h0
		C43.033,0,28.993,3.366,18.772,10.005C9.253,16.187,3.23,25.24,0.995,36.5H120.006z"/>
	<path fill="#4299E1" d="M22.473,105.5c0.081,0.128,0.168,0.267,0.244,0.386c6.084,9.554,12.726,18.248,18.703,24.48
		C49.033,138.303,55.095,142,60.5,142h0c5.405,0,11.467-3.697,19.08-11.634c5.977-6.232,12.619-14.927,18.703-24.48
		c0.076-0.119,0.163-0.258,0.244-0.386H22.473z"/>
	<path fill="#4299E1" d="M8.53,79.5c1.386,3.144,2.839,6.166,4.28,9h95.379c1.441-2.834,2.895-5.856,4.28-9H8.53z"/>
	<path fill="#4299E1" d="M0.494,53.5c0.408,2.945,1.056,5.964,1.881,9h116.25c0.825-3.036,1.473-6.055,1.881-9H0.494z"/>
	<path fill="#4299E1" d="M3.554,66.5c0.966,3.031,2.081,6.05,3.282,9h107.328c1.201-2.95,2.316-5.969,3.281-9H3.554z"/>
	<path fill="#4299E1" d="M100.99,101.5c1.486-2.479,3.25-5.536,5.109-9H14.9c1.859,3.464,3.623,6.521,5.11,9H100.99z"/>
</g>
<g>
	<path fill="#4A5568" d="M183.962,55.294v10.739h-28.905V55.294H183.962z M161.113,44.317H175.7v42.388
		c0,0.895,0.144,1.615,0.433,2.162c0.288,0.548,0.71,0.936,1.268,1.164c0.557,0.229,1.223,0.343,1.999,0.343
		c0.557,0,1.148-0.054,1.775-0.164c0.626-0.108,1.099-0.204,1.417-0.283l2.207,10.53c-0.696,0.199-1.675,0.447-2.938,0.745
		c-1.263,0.298-2.77,0.487-4.519,0.567c-3.421,0.158-6.349-0.244-8.785-1.209c-2.436-0.964-4.295-2.471-5.578-4.519
		c-1.282-2.048-1.904-4.624-1.864-7.726V44.317z"/>
	<path fill="#4A5568" d="M204.335,101.889c-2.923,0-5.514-0.492-7.771-1.477c-2.257-0.984-4.037-2.477-5.339-4.475
		c-1.303-1.998-1.954-4.51-1.954-7.532c0-2.546,0.447-4.692,1.342-6.442c0.895-1.75,2.127-3.173,3.699-4.267
		c1.571-1.094,3.38-1.924,5.429-2.49c2.048-0.567,4.236-0.95,6.563-1.148c2.605-0.239,4.703-0.492,6.294-0.761
		s2.75-0.656,3.476-1.164c0.726-0.507,1.089-1.228,1.089-2.162v-0.149c0-1.531-0.527-2.715-1.581-3.55s-2.476-1.253-4.266-1.253
		c-1.929,0-3.48,0.418-4.653,1.253c-1.174,0.835-1.919,1.989-2.237,3.46l-13.453-0.477c0.397-2.784,1.427-5.275,3.087-7.473
		c1.66-2.197,3.947-3.927,6.861-5.19c2.913-1.263,6.418-1.894,10.515-1.894c2.923,0,5.618,0.343,8.084,1.028
		c2.466,0.687,4.613,1.681,6.442,2.983c1.83,1.303,3.247,2.898,4.252,4.787c1.004,1.89,1.506,4.048,1.506,6.474v31.143h-13.722
		v-6.384h-0.358c-0.814,1.551-1.854,2.863-3.117,3.938c-1.263,1.073-2.744,1.879-4.444,2.416S206.463,101.889,204.335,101.889z
		 M208.839,92.343c1.571,0,2.988-0.317,4.25-0.954s2.271-1.517,3.027-2.641c0.756-1.123,1.135-2.431,1.135-3.922v-4.355
		c-0.418,0.219-0.92,0.418-1.507,0.597s-1.229,0.349-1.925,0.507c-0.695,0.16-1.412,0.299-2.146,0.418
		c-0.736,0.119-1.443,0.229-2.119,0.328c-1.372,0.219-2.541,0.557-3.505,1.014c-0.965,0.458-1.7,1.049-2.208,1.775
		c-0.507,0.727-0.76,1.586-0.76,2.58c0,1.512,0.542,2.665,1.625,3.461C205.792,91.945,207.169,92.343,208.839,92.343z"/>
	<path fill="#4A5568" d="M240.607,101.113V40.021h14.586V63.14h0.299c0.596-1.392,1.446-2.734,2.551-4.027
		c1.104-1.292,2.515-2.352,4.235-3.177c1.72-0.825,3.783-1.237,6.189-1.237c3.182,0,6.159,0.835,8.935,2.505
		c2.773,1.671,5.016,4.246,6.727,7.727c1.709,3.479,2.564,7.915,2.564,13.304c0,5.19-0.82,9.536-2.461,13.036
		s-3.848,6.125-6.622,7.875s-5.852,2.625-9.231,2.625c-2.308,0-4.307-0.379-5.996-1.134c-1.691-0.756-3.107-1.75-4.251-2.983
		c-1.144-1.232-2.024-2.555-2.64-3.967h-0.447v7.428H240.607z M254.896,78.203c0,2.467,0.333,4.614,0.999,6.443
		c0.666,1.83,1.631,3.247,2.894,4.251c1.263,1.005,2.778,1.507,4.549,1.507c1.79,0,3.312-0.502,4.563-1.507
		c1.254-1.004,2.203-2.421,2.85-4.251c0.646-1.829,0.969-3.977,0.969-6.443c0-2.465-0.323-4.604-0.969-6.413
		c-0.646-1.81-1.592-3.211-2.834-4.206c-1.243-0.994-2.77-1.491-4.579-1.491c-1.79,0-3.312,0.487-4.563,1.462
		c-1.253,0.975-2.213,2.366-2.879,4.176S254.896,75.698,254.896,78.203z"/>
	<path fill="#4A5568" d="M294.479,101.113v-8.322l21.238-25.863V66.63h-20.492V55.294h37.883v9.128L313.42,89.479v0.298h20.403
		v11.336H294.479z"/>
	<path fill="#4A5568" d="M363.354,101.979c-4.792,0-8.924-0.95-12.394-2.85c-3.471-1.898-6.136-4.613-7.994-8.143
		c-1.86-3.53-2.789-7.73-2.789-12.604c0-4.733,0.934-8.875,2.803-12.425c1.869-3.549,4.505-6.313,7.905-8.292
		c3.401-1.979,7.407-2.968,12.021-2.968c3.261,0,6.244,0.507,8.948,1.521c2.705,1.015,5.042,2.517,7.011,4.505
		s3.499,4.439,4.594,7.353c1.093,2.914,1.641,6.249,1.641,10.008v3.64h-39.823v-8.472h26.25c-0.02-1.552-0.387-2.934-1.104-4.146
		c-0.715-1.213-1.695-2.163-2.938-2.849c-1.243-0.687-2.67-1.029-4.281-1.029c-1.631,0-3.092,0.363-4.385,1.089
		c-1.293,0.727-2.316,1.711-3.072,2.953c-0.756,1.243-1.153,2.65-1.193,4.221v8.621c0,1.869,0.368,3.505,1.104,4.907
		c0.736,1.401,1.779,2.491,3.133,3.267c1.352,0.775,2.963,1.163,4.832,1.163c1.293,0,2.466-0.179,3.52-0.537
		c1.055-0.358,1.959-0.885,2.715-1.581c0.756-0.695,1.322-1.551,1.7-2.565l13.394,0.388c-0.557,3.004-1.775,5.613-3.654,7.83
		c-1.879,2.219-4.34,3.938-7.383,5.161C370.871,101.366,367.352,101.979,363.354,101.979z"/>
	<path fill="#4A5568" d="M392.588,101.113V55.294h14.169v8.353h0.478c0.835-3.022,2.197-5.274,4.087-6.756
		c1.889-1.481,4.086-2.223,6.592-2.223c0.676,0,1.372,0.045,2.088,0.134c0.716,0.09,1.382,0.225,1.999,0.403v12.678
		c-0.696-0.239-1.606-0.428-2.729-0.567c-1.124-0.139-2.123-0.209-2.998-0.209c-1.729,0-3.286,0.384-4.668,1.148
		c-1.383,0.767-2.466,1.83-3.252,3.192c-0.785,1.362-1.178,2.958-1.178,4.787v24.879H392.588z"/>
</g>
</svg>
